<svg xmlns="http://www.w3.org/2000/svg" width="80" height="80" viewBox="0 0 80 80">
<!-- SVG created with Arrow, by QuiverAI (https://quiver.ai) -->
  <rect width="80" height="80" fill="#000" fill-opacity=".15"/>
  <path d="m78.7 35.22-2.86 0.09c0.03-0.52 0-1.4-0.22-1.54-0.13-0.08-0.43-0.06-0.54 0l-0.13 1.5-4.17 0.06-0.24-0.3-0.56-0.06c-3.32-0.19-7.63-0.31-10.07-0.26l-0.04 0.55-0.5 0.03-0.02-0.53h-0.59l-1.09 0.35-2.95-0.17-0.04-0.29-1.17-0.14c-0.09-0.33-0.34-0.56-0.68-0.53-0.39 0.04-0.39 0.75-0.31 1.1l-1.33 0.14-0.01 0.43-2.27 1.42-1.3-0.42-6.99 0.61-0.58 0.02c-0.15 1.46-0.03 3.84 0.13 5.08h0.72l6.5-2.58c0.67 0.29 1.44 0.41 1.99 0.33 0.14-0.98 1.46-2.09 2.33-2.12l0.31 0.13c-0.04 0.66 0.35 1.14 1.35 1.14 0.79 0 1-0.77 1.01-1.29l1.13 0.1 0.32 0.06c0.08 1.4 0.3 3.13 0.61 4.1 0.94 0 2.12-0.28 2.81-0.62-0.36-1.3-0.5-2.93-0.53-3.91l2.6-0.37 8.87-0.26 0.35-0.21 0.24-0.02 0.05-0.88 4.11 0.1 0.25 0.21h0.77l0.11-0.21 2.55 0.11c0.15-0.25 0.18-0.66 0.08-0.95zm-25.39 3.87c-0.61 0.05-0.87-0.35-0.86-0.81l0.24-0.39 1.09 0.09c0.1 0.48-0.06 1.08-0.47 1.11z" fill="#FAEDCE"/>
  <path d="m40.45 37.36h-0.41c-0.12 1.53-0.02 3.82 0.13 4.99h0.52c-0.15-1.65-0.21-3.35-0.24-4.99z" fill="#FAEDCE"/>
  <path d="m20 39.26 0.21-0.11-0.11-1.89 0.38-0.3 0.2 0.09h9.83l0.2 0.22h0.49l0.04-0.95h1.12l0.09 0.53h0.7v-0.59h3.66l2.19 0.13c0.12-0.3 0.14-0.78 0.05-1.01l-2.19 0.06-4.01 0.01c0-0.95-0.06-2.11-0.23-2.49-0.11-0.12-0.42-0.12-0.57-0.02l-1.54 1.62h-9.81l-0.23-0.1h-0.55l-0.18 0.08h-4.64l-0.18-0.17h-0.16v-0.47l-0.88-0.14-0.03-0.89h-0.39l-0.02 0.98-0.82 0.12-0.07 0.41h-0.79l-0.25 0.7-1.84-0.01-7.9-0.12c-0.23-0.01-0.41 0.05-0.42 0.36 0.03 1.98 0.29 4.57 0.69 6.21 0.32 0.1 0.82 0.1 1.12 0l0.03-0.48 3.46-2.85 0.32 0.25 0.6-0.08 0.04-0.42 0.78-0.06 0.3-0.67 1.06-0.28 0.92-0.27 0.52 0.15 0.11 0.65c0.76 0.05 1.06 0.48 0.96 1.1-0.78 1.29-1.89 2.72-2.44 3.85 0.67 0.58 1.79 0.92 2.64 0.95l0.19-0.21-0.04-0.42 1.17-2.72 0.49-0.21 1.29 0.14 1.51-0.11c0.02 1.88 0.41 4.02 0.96 5.38l2.85-0.74c-0.52-1.76-0.85-3.57-0.88-5.21zm-3.37 0.25-1.19 0.17c-0.97-0.3-0.77-1.34 0.04-1.48l1.18 0.08c0.14 0.38 0.11 0.87-0.03 1.23z" fill="#FAEDCE"/>
  <path d="m11.63 36.64c-0.01-0.13-0.12-0.19-0.26-0.19-0.12 0-0.22 0.08-0.22 0.21 0 0.11 0.1 0.22 0.23 0.22 0.15 0 0.26-0.1 0.25-0.24z" fill="#FAEDCE" opacity=".15"/>
  <path d="m10.73 35.16h-1.02v1.56l1.02-0.15v-1.41z" fill="#FAEDCE"/>
  <path d="m9.57 35.07-7.66-0.08c-0.03 1.96 0.27 4.63 0.63 6.49h0.29c-0.24-1.67-0.41-3.39-0.46-4.65h5.76l-0.01 0.13h0.03v0.69l0.53-0.02 0.23-0.61 0.67-0.1v-1.85h-0.01z" fill="#FAEDCE"/>
  <path d="m2.67 36.97c0.02 0.98 0.1 2.11 0.24 3.18l2.47-2.22-0.02-0.78-2.69-0.18z" fill="#FAEDCE"/>
  <path d="m3.13 37.55v0.31l2.03-0.34-0.01-0.14-2.02 0.17z" fill="#888582"/>
  <path d="m3.25 39.42 0.11 0.29 1.8-1.19-0.05-0.2-1.86 1.1z" fill="#888582"/>
  <path d="m3.35 40.14 0.07 0.3 1.73-1.45-0.05-0.18-1.75 1.33z" fill="#888582"/>
  <path d="m2.68 36.04v0.23h1.23v-0.23h-1.23z" fill="#888582"/>
  <path d="m4.27 36.04v0.23h1.28v-0.23h-1.28z" fill="#888582"/>
  <path d="m5.88 36.04v0.23h1.24v-0.23h-1.24z" fill="#888582"/>
  <path d="m7.47 36.04v0.23h1.18v-0.23h-1.18z" fill="#888582"/>
  <path d="m13.82 33.83v0.29h0.33v-0.29h-0.33z" fill="#888582"/>
  <path d="m12.6 34.39v0.22h2.15v-0.22h-2.15z" fill="#888582"/>
  <circle cx="13.96" cy="34.44" r=".1152" fill="#888582"/>
  <circle cx="14.45" cy="34.44" r=".1152" fill="#888582"/>
  <path d="m15.71 34.68c-0.46 0.12-0.61 0.51-0.57 0.91h0.11c-0.01-0.36 0.13-0.68 0.55-0.8l-0.09-0.11z" fill="#ADABA7"/>
  <path d="m16.22 35.25c-0.15 0.17-0.12 0.45-0.05 0.67h3.76c0.08-0.19 0.07-0.47-0.04-0.59-1.24-0.07-2.49-0.1-3.67-0.08z" fill="#ADABA7"/>
  <path d="m16.22 36.36h-3.63l-0.71-0.58v-0.54h0.42l0.02-0.11h-0.7l-0.03 0.71 0.92 0.7 0.11 0.17h3.61l-0.01-0.35z" fill="#ADABA7"/>
  <circle cx="12.61" cy="36.83" r=".1431" fill="#ADABA7"/>
  <circle cx="13.59" cy="37.27" r=".2925" fill="#ADABA7"/>
  <circle cx="13.6" cy="37.27" r=".1157" fill="#888582"/>
  <circle cx="16.57" cy="37.46" r=".3179" fill="#ADABA7"/>
  <circle cx="16.57" cy="37.46" r=".1421" fill="#888582"/>
  <circle cx="14.91" cy="37.6" r=".1157" fill="#888582"/>
  <path d="m12.29 38.25c0.02 0.05 0.03 0.1 0.03 0.13h1.57v1.42l0.19 0.03v-1.58h-1.79z" fill="#ADABA7"/>
  <path d="m14.88 38.21c-0.55 0.36-0.44 1.23 0.19 1.5l0.17-0.03c-0.56-0.29-0.62-0.93-0.19-1.44l-0.17-0.03z" fill="#ADABA7"/>
  <path d="m16.87 39.62 0.02 0.17 3.35-0.59-0.02-0.16-3.35 0.58z" fill="#ADABA7"/>
  <path d="m17.04 39.77c0.01 1.89 0.37 3.87 0.92 5.36l0.25-0.07c-0.51-1.58-0.8-3.45-0.83-5.31l-0.34 0.02z" fill="#FAEDCE"/>
  <path d="m18.15 39.64c0.01 1.77 0.28 3.62 0.78 5.1l0.19-0.05c-0.44-1.53-0.68-3.26-0.69-5.06l-0.28 0.01z" fill="#888582"/>
  <path d="m19.07 39.48c0.01 1.76 0.24 3.61 0.75 5.1l0.24-0.07c-0.45-1.53-0.67-3.28-0.69-5.03h-0.3z" fill="#888582"/>
  <path d="m20.67 34.47v2.56h0.22v-2.56h-0.22z" fill="#ADABA7"/>
  <path d="m30.5 34.58v2.48h0.36v-2.48h-0.36z" fill="#ADABA7"/>
  <path d="m32.67 33.41h-0.69l-0.97 1.26v0.29h1.62l0.04-1.55z" fill="#FAEDCE"/>
  <path d="m31.99 33.75-0.83 0.98h1.15l0.04-0.98h-0.36z" fill="#888582"/>
  <path d="m30.99 35.39v0.6h1.52l0.02-0.6h-1.54z" fill="#888582"/>
  <path d="m36.8 35.47h-3.88v0.76h3.88v-0.76z" fill="#FAEDCE"/>
  <path d="m36.99 35.43v0.94h0.25v-0.94h-0.25z" fill="#ADABA7"/>
  <path d="m37.43 35.55v0.7l1.49 0.06v-0.76h-1.49z" fill="#FAEDCE"/>
  <rect x="37.53" y="35.71" width="1.153" height=".1924" fill="#888582"/>
  <path d="m21.7 34.57v2.46h8.69v-2.46h-8.69z" fill="#FAEDCE"/>
  <rect x="22.35" y="34.88" width=".5771" height=".2373" fill="#888582"/>
  <rect x="23.31" y="34.88" width=".8057" height=".2373" fill="#888582"/>
  <rect x="24.46" y="34.88" width=".6318" height=".2373" fill="#888582"/>
  <rect x="25.45" y="34.88" width=".6758" height=".2373" fill="#888582"/>
  <rect x="26.54" y="34.88" width=".5771" height=".2373" fill="#888582"/>
  <rect x="27.51" y="34.88" width=".4775" height=".2373" fill="#888582"/>
  <rect x="28.33" y="34.88" width=".4521" height=".2373" fill="#888582"/>
  <rect x="29.15" y="34.88" width=".6123" height=".2373" fill="#888582"/>
  <rect x="29.97" y="34.88" width=".3857" height=".2373" fill="#888582"/>
  <rect x="22.43" y="35.62" width=".5342" height=".209" fill="#888582"/>
  <rect x="23.31" y="35.62" width="1.101" height=".209" fill="#888582"/>
  <rect x="24.79" y="35.62" width=".7354" height=".209" fill="#888582"/>
  <rect x="25.91" y="35.62" width=".6934" height=".209" fill="#888582"/>
  <rect x="27.11" y="35.62" width=".6621" height=".209" fill="#888582"/>
  <rect x="28.15" y="35.62" width=".6553" height=".209" fill="#888582"/>
  <rect x="29.12" y="35.62" width=".665" height=".209" fill="#888582"/>
  <rect x="29.97" y="35.62" width=".3564" height=".209" fill="#888582"/>
  <rect x="22.48" y="36.24" width=".4678" height=".2178" fill="#888582"/>
  <rect x="23.31" y="36.24" width=".9365" height=".2178" fill="#888582"/>
  <rect x="24.73" y="36.24" width=".6816" height=".2178" fill="#888582"/>
  <rect x="25.84" y="36.24" width=".707" height=".2178" fill="#888582"/>
  <rect x="27.14" y="36.24" width=".6826" height=".2178" fill="#888582"/>
  <rect x="28.2" y="36.24" width=".6201" height=".2178" fill="#888582"/>
  <rect x="29.15" y="36.24" width=".6279" height=".2178" fill="#888582"/>
  <rect x="29.97" y="36.24" width=".4512" height=".2178" fill="#888582"/>
  <rect x="30.7" y="36.59" width=".335" height=".6816" fill="#ADABA7"/>
  <path d="m32.37 36.51 0.09 0.46h0.56l0.01-0.46h-0.66z" fill="#ADABA7"/>
  <path d="m73.15 38.44c-1.01-0.7-4.06-0.87-8.61-0.59-3.54 0.22-4.87 0.07-5.77-0.17l-0.22 0.01 0.07 0.22-0.21 0.03c0.05 0.26 0.04 0.63 0.12 0.93 1.22 0.26 3.2 0.64 5.31 0.81 2.47-1 7.49-0.89 9.31-0.72 0.13-0.09 0.16-0.37 0-0.52z" fill="#ADABA7" opacity=".15"/>
  <path d="m59.49 43.16c-0.53 0.41-0.98 0.59-1.69 0.78h2.63c-0.11-0.29-0.47-0.6-0.94-0.78z" fill="#ADABA7" opacity=".15"/>
  <path d="m52.27 32.69c-2.08-0.08-4.38-0.03-5.72-0.09l-0.24-0.94c-2.94 0.53-6.72 0.97-9.8 1.61-1.98 0.42-4.7 1.02-6.17 1.29l0.28 0.36h0.1c1.9-0.41 4.66-0.93 7.13-1.28 3.08-0.44 6.26-0.75 8.14-0.84-0.21 1.22-0.3 2.5-0.27 3.64l0.78-0.02 0.03-3.09c2.22-0.05 4.71-0.01 6.59 0.11 1.58 0.11 2.72 0.54 3.42 1.2l0.18-0.16c-0.62-1.05-2.34-1.7-4.45-1.79z" fill="#ADABA7" opacity=".15"/>
  <path d="m25.33 33.19c-3.09-0.2-7.45-0.49-9.48-0.46l-0.86 0.96 0.33 0.2c3.39-0.45 7.09-0.36 10.15-0.32l-0.14-0.38z" fill="#ADABA7" opacity=".15"/>
  <path d="m16.69 39.84-1.15 0.13-1.45-0.12-0.52 0.36-0.04 0.36c1.06 1.37 1.81 3.07 2.31 4.54l2.3 0.04c-0.68-1.74-1.18-3.54-1.45-5.31z" fill="#ADABA7" opacity=".15"/>
  <path d="m9.51 49.07-6.6 2.17v1.3l2.71-0.78 0.14 0.79 0.95-0.49 2.68 3.38 0.51-0.23-1.05-2.88 3.67 3.14h5.71l-8.72-6.4z" fill="#ADABA7" opacity=".15"/>
  <path d="m23.33 77.57-0.07 0.02 0.91 2.41h2.28l-1.11-2.45 1.67 2.45h15.08l-2.27-2.89-16.49 0.46z" fill="#ADABA7" opacity=".15"/>
  <path d="m69.03 77.4-0.68 2.57h4.93l-0.23-2.64-4.02 0.07z" fill="#ADABA7" opacity=".15"/>
  <path d="m60.05 35.31 9.89 0.07v0.08l-9.89-0.06v-0.09z" fill="#ADABA7"/>
  <path d="m66.72 35.64v0.21h1.08v-0.21h-1.08z" fill="#888582"/>
  <path d="m68.18 35.65v0.18h0.76v-0.18h-0.76z" fill="#888582"/>
  <path d="m69.22 35.65v0.18h0.47v-0.18h-0.47z" fill="#888582"/>
  <path d="m70.1 34.98v2h0.24v-2h-0.24z" fill="#ADABA7"/>
  <path d="m70.55 35.45v1.2h0.2v-1.2h-0.2z" fill="#ADABA7"/>
  <path d="m75.25 33.84v2.29h0.32v-2.29h-0.32z" fill="#ADABA7"/>
  <path d="m75.85 35.31v0.71l0.23 0.01v-0.72h-0.23z" fill="#ADABA7"/>
  <path d="m76.69 35.36v0.61l0.24 0.01v-0.62h-0.24z" fill="#ADABA7"/>
  <path d="m77.52 35.37v0.62l0.28 0.01v-0.63h-0.28z" fill="#ADABA7"/>
  <path d="m53.09 34.19 0.04 0.72h0.15l-0.06-0.72h-0.13z" fill="#ADABA7"/>
  <circle cx="53.16" cy="34.47" r=".07617" fill="#ADABA7"/>
  <path d="m52.83 35.51 0.18 0.19 4.88-0.03 0.15 0.12h1.29l0.08-0.23-0.22-0.02-0.04 0.14h-1.06l-0.16-0.2-5.1 0.03z" fill="#888582"/>
  <path d="m57.6 35.07-0.03 0.52h1.35l0.27-0.53-0.55-0.07-1.04 0.08z" fill="#FAEDCE"/>
  <path d="m55.77 38.03c0.08 1.44 0.31 2.93 0.61 4.12l0.31-0.04c-0.27-1.32-0.43-2.69-0.49-4.08h-0.43z" fill="#FAEDCE"/>
  <path d="m56.75 37.95c0.02 1.38 0.19 2.8 0.49 4.07l0.34-0.05c-0.25-1.32-0.39-2.66-0.42-4.02h-0.41z" fill="#FAEDCE"/>
  <path d="m57.72 37.86c0.03 1.34 0.19 2.73 0.47 3.98l0.32-0.08c-0.23-1.27-0.36-2.57-0.4-3.9h-0.39z" fill="#FAEDCE"/>
  <path d="m52.49 37.88c-0.4 0.42-0.23 1.16 0.49 1.29l0.07-0.08c-0.6-0.15-0.67-0.7-0.43-1.2l-0.13-0.01z" fill="#ADABA7"/>
  <path d="m53.54 37.94c0.11 0.38 0.04 0.78-0.29 1.08l0.13 0.06c0.4-0.26 0.46-0.74 0.35-1.14h-0.19z" fill="#ADABA7"/>
  <path d="m40.51 37.36c0.03 1.68 0.09 3.39 0.24 4.97l0.16-0.06-0.17-4.92-0.23 0.01z" fill="#ADABA7"/>
  <path d="m54.79 35.14v0.25l2.03 0.03v-0.24l-2.03-0.04z" fill="#888582"/>
  <path d="m56.97 35.21v0.23h0.41v-0.23h-0.41z" fill="#888582"/>
</svg>